<svg width="483" height="227" viewBox="0 0 483 227" fill="none" xmlns="http://www.w3.org/2000/svg">
<g clip-path="url(#clip0_122_2740)">
<path d="M119.672 147.896C119.672 177.701 92.8824 201.868 59.8335 201.868C26.7847 201.868 0 177.701 0 147.896C0 118.09 26.7926 93.9202 59.8335 93.9202C92.8744 93.9202 119.672 118.082 119.672 147.896Z" fill="url(#paint0_radial_122_2740)"/>
<path d="M139.219 132.363C135.463 151.176 103.46 165.085 67.738 163.474C32.0163 161.863 6.13941 145.286 9.88996 126.497C13.6405 107.707 45.6436 93.7689 81.3786 95.3615C117.087 97.0178 142.977 113.546 139.219 132.363Z" fill="white"/>
<path d="M346.98 62.6073C346.98 97.1957 312.662 125.22 270.331 125.22C228 125.22 193.685 97.1957 193.685 62.6073C193.685 28.019 228.003 0 270.331 0C312.659 0 346.98 28.0322 346.98 62.6073Z" fill="url(#paint1_radial_122_2740)"/>
<path d="M327.964 49.2694C324.739 70.9472 295.069 86.1988 261.689 83.3906C228.308 80.5823 203.899 60.7121 207.121 39.0635C210.344 17.415 240.011 2.12615 273.402 4.92114C306.78 7.76922 331.202 27.5837 327.964 49.2694Z" fill="white"/>
<path d="M483 155.45C483 190.025 448.682 218.062 406.346 218.062C364.01 218.062 329.705 190.025 329.705 155.45C329.705 120.875 364.026 92.8319 406.346 92.8319C448.666 92.8319 483 120.864 483 155.45Z" fill="url(#paint2_radial_122_2740)"/>
<path d="M286.528 122.661C286.528 176.544 232.632 220.22 166.163 220.22C99.6933 220.22 45.7896 176.541 45.7896 122.661C45.7896 68.7812 99.6721 25.1018 166.163 25.1018C232.653 25.1018 286.528 68.7733 286.528 122.661Z" fill="url(#paint3_radial_122_2740)"/>
<path d="M271.085 104.938C265.957 141.382 218.299 166.954 164.623 162.112C110.948 157.271 71.6213 123.787 76.7388 87.372C81.8563 50.9575 129.509 25.3461 183.203 30.1557C236.874 35.0502 276.205 68.468 271.085 104.938Z" fill="white"/>
<path d="M466.18 133.106C462.519 151.609 430.577 164.889 394.834 162.797C359.091 160.705 333.103 143.996 336.763 125.512C340.424 107.027 372.331 93.7185 408.109 95.7835C443.846 97.9176 469.84 114.592 466.18 133.106Z" fill="white"/>
<path d="M413.906 143.574C413.906 189.494 367.986 226.702 311.356 226.702C254.726 226.702 208.786 189.483 208.786 143.574C208.786 97.6654 254.705 60.452 311.346 60.452C367.986 60.452 413.906 97.6628 413.906 143.574Z" fill="url(#paint4_radial_122_2740)"/>
<path d="M370.093 121.483C366.377 148.981 331.505 168.222 292.205 164.525C252.906 160.827 224.093 135.516 227.806 108.052C231.52 80.5876 266.379 61.2987 305.689 64.9829C344.978 68.7281 373.804 93.9785 370.093 121.483Z" fill="white"/>
<path style="mix-blend-mode:multiply" d="M275.879 148.235C275.703 174.102 252.55 194.911 224.159 194.72C195.769 194.529 172.902 173.398 173.074 147.543C173.247 121.687 196.401 100.874 224.788 101.068C253.176 101.262 276.051 122.377 275.879 148.235Z" fill="url(#paint5_radial_122_2740)"/>
<path d="M278.305 163.577C278.305 170.213 272.548 175.612 265.453 175.612H214.585C207.488 175.612 201.733 170.224 201.733 163.577V114.942C201.733 108.307 207.488 102.908 214.585 102.908H265.453C272.548 102.908 278.305 108.299 278.305 114.942V163.577Z" fill="url(#paint6_linear_122_2740)"/>
<path d="M274.289 110.003C274.289 110.653 274.162 111.298 273.913 111.899C273.664 112.5 273.3 113.046 272.84 113.507C272.379 113.967 271.833 114.331 271.232 114.58C270.631 114.829 269.986 114.956 269.336 114.956H210.705C210.054 114.957 209.409 114.829 208.808 114.581C208.206 114.332 207.659 113.968 207.199 113.507C206.739 113.047 206.374 112.501 206.125 111.9C205.876 111.298 205.748 110.654 205.749 110.003C205.749 109.352 205.877 108.708 206.126 108.107C206.375 107.506 206.74 106.959 207.201 106.5C207.661 106.04 208.207 105.675 208.808 105.426C209.41 105.177 210.054 105.049 210.705 105.05H269.336C269.986 105.049 270.631 105.177 271.232 105.426C271.833 105.675 272.379 106.04 272.839 106.5C273.299 106.96 273.664 107.506 273.912 108.107C274.161 108.708 274.289 109.352 274.289 110.003Z" fill="url(#paint7_linear_122_2740)"/>
<path style="mix-blend-mode:screen" opacity="0.19" d="M240.04 107.192C223.775 107.311 210.577 106.446 210.577 105.262C210.577 104.078 223.743 103.022 240.006 102.905C256.269 102.788 269.469 103.651 269.469 104.835C269.469 106.019 256.298 107.075 240.04 107.192Z" fill="url(#paint8_radial_122_2740)"/>
<path d="M266.01 113.352C263.863 113.352 261.58 112.62 261.58 111.263V98.7006C261.612 95.8073 261.069 92.9363 259.984 90.2539C258.899 87.5716 257.293 85.1312 255.258 83.074C253.223 81.0167 250.8 79.3834 248.13 78.2687C245.46 77.154 242.595 76.5802 239.702 76.5802C236.808 76.5802 233.943 77.154 231.273 78.2687C228.603 79.3834 226.18 81.0167 224.146 83.074C222.111 85.1312 220.504 87.5716 219.419 90.2539C218.334 92.9363 217.792 95.8073 217.824 98.7006V111.263C217.824 112.62 215.543 113.352 213.396 113.352C211.249 113.352 208.966 112.62 208.966 111.263V98.7006C208.961 94.596 209.787 90.5328 211.395 86.7562C214.531 79.3943 220.394 73.5313 227.756 70.395C231.534 68.793 235.596 67.9674 239.7 67.9674C243.804 67.9674 247.866 68.793 251.645 70.395C259.005 73.5334 264.868 79.3958 268.006 86.7562C269.614 90.5328 270.44 94.596 270.435 98.7006V111.263C270.44 112.614 268.157 113.352 266.01 113.352Z" fill="#1D1D1B"/>
<path d="M267.595 86.9288C264.503 79.6751 258.726 73.898 251.472 70.8065C247.749 69.2282 243.746 68.4149 239.702 68.4149C235.658 68.4149 231.655 69.2282 227.931 70.8065C220.677 73.898 214.9 79.6751 211.809 86.9288C210.226 90.6511 209.413 94.6556 209.42 98.7007V111.263C209.42 112.166 211.201 112.901 213.401 112.901C215.602 112.901 217.383 112.166 217.383 111.263V98.7007C217.389 92.7801 219.744 87.1039 223.93 82.9174C228.117 78.731 233.793 76.3762 239.714 76.3699C245.634 76.3769 251.309 78.7319 255.495 82.9183C259.681 87.1047 262.035 92.7806 262.042 98.7007V111.263C262.042 112.166 263.823 112.901 266.023 112.901C268.224 112.901 270.005 112.166 270.005 111.263V98.7007C270.005 94.6542 269.185 90.6496 267.595 86.9288Z" fill="#1D1D1B"/>
<path style="mix-blend-mode:screen" d="M241.527 118.101C225.261 118.22 212.064 116.914 212.064 115.181C212.064 113.448 225.224 111.959 241.487 111.839C257.75 111.72 270.95 113.026 270.95 114.759C270.95 116.493 257.784 117.984 241.527 118.101Z" fill="url(#paint9_radial_122_2740)"/>
<path style="mix-blend-mode:screen" d="M252.847 118.167C239.764 118.26 229.152 116.938 229.139 115.21C229.126 113.483 239.719 112.004 252.799 111.909C265.88 111.813 276.492 113.137 276.502 114.865C276.513 116.593 265.925 118.072 252.847 118.167Z" fill="url(#paint10_radial_122_2740)"/>
<path style="mix-blend-mode:screen" d="M263.73 101.058C263.682 94.2573 264.661 88.7363 265.922 88.7284C267.183 88.7204 268.24 94.2228 268.29 101.023C268.34 107.824 267.358 113.342 266.1 113.352C264.842 113.363 263.775 107.855 263.73 101.058Z" fill="url(#paint11_radial_122_2740)"/>
<path style="mix-blend-mode:screen" d="M210.888 101.01C210.983 94.2068 212.08 88.7124 213.34 88.7283C214.601 88.7443 215.541 94.2732 215.445 101.074C215.35 107.874 214.253 113.368 212.993 113.35C211.732 113.331 210.792 107.808 210.888 101.01Z" fill="url(#paint12_radial_122_2740)"/>
<path style="mix-blend-mode:screen" opacity="0.19" d="M240.045 108.177C223.782 108.296 210.583 106.99 210.583 105.257C210.583 103.524 223.743 102.032 240.006 101.915C256.269 101.798 269.469 103.101 269.469 104.835C269.469 106.568 256.298 108.06 240.045 108.177Z" fill="url(#paint13_radial_122_2740)"/>
<path d="M227.984 135.351C227.984 133.642 228.534 131.908 229.633 130.149C230.731 128.39 232.336 126.935 234.445 125.783C236.552 124.631 239.012 124.054 241.824 124.052C244.437 124.052 246.744 124.534 248.744 125.499C250.622 126.358 252.226 127.72 253.381 129.432C254.453 131.031 255.023 132.914 255.016 134.839C255.047 136.238 254.727 137.623 254.084 138.866C253.501 139.968 252.753 140.976 251.868 141.854C251.01 142.691 249.473 144.102 247.257 146.085C246.738 146.548 246.247 147.04 245.784 147.559C245.463 147.911 245.187 148.301 244.961 148.721C244.785 149.06 244.645 149.416 244.542 149.783C244.441 150.133 244.292 150.752 244.096 151.641C243.754 153.518 242.682 154.456 240.879 154.454C240.443 154.465 240.01 154.389 239.604 154.231C239.198 154.073 238.827 153.836 238.514 153.533C237.873 152.923 237.553 152.013 237.553 150.805C237.469 148.27 238.393 145.806 240.122 143.951C241.115 142.902 242.161 141.906 243.257 140.965C244.409 139.957 245.243 139.195 245.758 138.68C246.268 138.171 246.705 137.593 247.056 136.963C247.407 136.335 247.59 135.627 247.586 134.908C247.597 134.22 247.459 133.537 247.181 132.907C246.904 132.277 246.493 131.715 245.978 131.258C244.905 130.269 243.522 129.774 241.826 129.772C239.843 129.772 238.383 130.272 237.447 131.272C236.511 132.272 235.714 133.746 235.058 135.694C234.446 137.731 233.283 138.748 231.57 138.746C231.094 138.756 230.621 138.667 230.182 138.484C229.742 138.302 229.345 138.029 229.017 137.685C228.696 137.385 228.44 137.024 228.263 136.623C228.085 136.222 227.99 135.79 227.984 135.351ZM241.176 164.981C240.118 164.997 239.091 164.619 238.296 163.92C237.475 163.212 237.066 162.217 237.067 160.934C237.056 160.399 237.156 159.869 237.36 159.375C237.565 158.882 237.87 158.436 238.256 158.067C238.64 157.687 239.097 157.389 239.598 157.189C240.1 156.989 240.636 156.893 241.176 156.904C241.706 156.898 242.232 156.998 242.722 157.198C243.213 157.398 243.659 157.693 244.034 158.068C244.409 158.442 244.706 158.887 244.906 159.377C245.107 159.868 245.208 160.393 245.203 160.923C245.203 162.185 244.798 163.176 243.987 163.896C243.22 164.603 242.212 164.991 241.168 164.981H241.176Z" fill="white"/>
</g>
<defs>
<radialGradient id="paint0_radial_122_2740" cx="0" cy="0" r="1" gradientUnits="userSpaceOnUse" gradientTransform="translate(55.9954 115.51) scale(110.672 138.339)">
<stop stop-color="white"/>
<stop offset="0.18" stop-color="#FCFCFC"/>
<stop offset="0.33" stop-color="#F1F2F3"/>
<stop offset="0.48" stop-color="#DFE1E5"/>
<stop offset="0.53" stop-color="#D7DADE"/>
<stop offset="0.59" stop-color="#DDDFE3"/>
<stop offset="0.68" stop-color="#EEEEF0"/>
<stop offset="0.72" stop-color="#F7F6F8"/>
</radialGradient>
<radialGradient id="paint1_radial_122_2740" cx="0" cy="0" r="1" gradientUnits="userSpaceOnUse" gradientTransform="translate(265.41 25.0434) scale(152.166 152.166)">
<stop stop-color="white"/>
<stop offset="0.18" stop-color="#FCFCFC"/>
<stop offset="0.33" stop-color="#F1F2F3"/>
<stop offset="0.48" stop-color="#DFE1E5"/>
<stop offset="0.53" stop-color="#D7DADE"/>
<stop offset="0.59" stop-color="#DDDFE3"/>
<stop offset="0.68" stop-color="#EEEEF0"/>
<stop offset="0.72" stop-color="#F7F6F8"/>
</radialGradient>
<radialGradient id="paint2_radial_122_2740" cx="0" cy="0" r="1" gradientUnits="userSpaceOnUse" gradientTransform="translate(401.43 117.878) scale(152.174 152.174)">
<stop stop-color="white"/>
<stop offset="0.18" stop-color="#FCFCFC"/>
<stop offset="0.33" stop-color="#F1F2F3"/>
<stop offset="0.48" stop-color="#DFE1E5"/>
<stop offset="0.53" stop-color="#D7DADE"/>
<stop offset="0.59" stop-color="#DDDFE3"/>
<stop offset="0.68" stop-color="#EEEEF0"/>
<stop offset="0.72" stop-color="#F7F6F8"/>
</radialGradient>
<radialGradient id="paint3_radial_122_2740" cx="0" cy="0" r="1" gradientUnits="userSpaceOnUse" gradientTransform="translate(158.431 64.1255) scale(237.85 237.85)">
<stop stop-color="white"/>
<stop offset="0.18" stop-color="#FCFCFC"/>
<stop offset="0.33" stop-color="#F1F2F3"/>
<stop offset="0.48" stop-color="#DFE1E5"/>
<stop offset="0.53" stop-color="#D7DADE"/>
<stop offset="0.59" stop-color="#DDDFE3"/>
<stop offset="0.68" stop-color="#EEEEF0"/>
<stop offset="0.72" stop-color="#F7F6F8"/>
</radialGradient>
<radialGradient id="paint4_radial_122_2740" cx="0" cy="0" r="1" gradientUnits="userSpaceOnUse" gradientTransform="translate(304.768 93.7025) scale(202.654 202.654)">
<stop stop-color="white"/>
<stop offset="0.18" stop-color="#FCFCFC"/>
<stop offset="0.33" stop-color="#F1F2F3"/>
<stop offset="0.48" stop-color="#DFE1E5"/>
<stop offset="0.53" stop-color="#D7DADE"/>
<stop offset="0.59" stop-color="#DDDFE3"/>
<stop offset="0.68" stop-color="#EEEEF0"/>
<stop offset="0.72" stop-color="#F7F6F8"/>
</radialGradient>
<radialGradient id="paint5_radial_122_2740" cx="0" cy="0" r="1" gradientUnits="userSpaceOnUse" gradientTransform="translate(221.089 151.425) rotate(0.578726) scale(51.6462 46.9516)">
<stop stop-color="#BE1E2D"/>
<stop offset="0.2" stop-color="#D05D68"/>
<stop offset="0.41" stop-color="#E1969D"/>
<stop offset="0.6" stop-color="#EEC4C8"/>
<stop offset="0.76" stop-color="#F7E4E6"/>
<stop offset="0.9" stop-color="#FDF8F8"/>
<stop offset="1" stop-color="white"/>
</radialGradient>
<linearGradient id="paint6_linear_122_2740" x1="147.776" y1="139.253" x2="269.853" y2="139.253" gradientUnits="userSpaceOnUse">
<stop offset="0.38" stop-color="#BE1E2D"/>
<stop offset="0.42" stop-color="#B61C29"/>
<stop offset="0.49" stop-color="#A01620"/>
<stop offset="0.58" stop-color="#7C0D10"/>
<stop offset="0.59" stop-color="#740B0C"/>
<stop offset="0.68" stop-color="#7A0D0F"/>
<stop offset="0.79" stop-color="#8B1116"/>
<stop offset="0.91" stop-color="#A61822"/>
<stop offset="1" stop-color="#BE1E2D"/>
</linearGradient>
<linearGradient id="paint7_linear_122_2740" x1="237.765" y1="76.7945" x2="243.562" y2="162.144" gradientUnits="userSpaceOnUse">
<stop stop-color="#BE1E2D"/>
<stop offset="0.12" stop-color="#B61C29"/>
<stop offset="0.31" stop-color="#A01620"/>
<stop offset="0.55" stop-color="#7C0D10"/>
<stop offset="0.59" stop-color="#740B0C"/>
<stop offset="0.68" stop-color="#7A0D0F"/>
<stop offset="0.79" stop-color="#8B1116"/>
<stop offset="0.91" stop-color="#A61822"/>
<stop offset="1" stop-color="#BE1E2D"/>
</linearGradient>
<radialGradient id="paint8_radial_122_2740" cx="0" cy="0" r="1" gradientUnits="userSpaceOnUse" gradientTransform="translate(233.28 201.24) rotate(90) scale(2.38994 29.4756)">
<stop stop-color="#BE1E2D"/>
<stop offset="0.19" stop-color="#861520"/>
<stop offset="0.39" stop-color="#560E14"/>
<stop offset="0.57" stop-color="#31080C"/>
<stop offset="0.74" stop-color="#160305"/>
<stop offset="0.89" stop-color="#060101"/>
<stop offset="1"/>
</radialGradient>
<radialGradient id="paint9_radial_122_2740" cx="0" cy="0" r="1" gradientUnits="userSpaceOnUse" gradientTransform="translate(234.567 126.635) rotate(90) scale(3.18431 29.455)">
<stop stop-color="#BE1E2D"/>
<stop offset="0.19" stop-color="#861520"/>
<stop offset="0.39" stop-color="#560E14"/>
<stop offset="0.57" stop-color="#31080C"/>
<stop offset="0.74" stop-color="#160305"/>
<stop offset="0.89" stop-color="#060101"/>
<stop offset="1"/>
</radialGradient>
<radialGradient id="paint10_radial_122_2740" cx="0" cy="0" r="1" gradientUnits="userSpaceOnUse" gradientTransform="translate(241.642 126.564) rotate(90) scale(3.18409 23.8808)">
<stop stop-color="#BE1E2D"/>
<stop offset="0.19" stop-color="#861520"/>
<stop offset="0.39" stop-color="#560E14"/>
<stop offset="0.57" stop-color="#31080C"/>
<stop offset="0.74" stop-color="#160305"/>
<stop offset="0.89" stop-color="#060101"/>
<stop offset="1"/>
</radialGradient>
<radialGradient id="paint11_radial_122_2740" cx="0" cy="0" r="1" gradientUnits="userSpaceOnUse" gradientTransform="translate(252.585 87.3188) rotate(180) scale(2.32051 12.1827)">
<stop stop-color="#FFFF00"/>
<stop offset="0.16" stop-color="#BFBF00"/>
<stop offset="0.33" stop-color="#868600"/>
<stop offset="0.49" stop-color="#565600"/>
<stop offset="0.64" stop-color="#313100"/>
<stop offset="0.78" stop-color="#161600"/>
<stop offset="0.9" stop-color="#060600"/>
<stop offset="1"/>
</radialGradient>
<radialGradient id="paint12_radial_122_2740" cx="0" cy="0" r="1" gradientUnits="userSpaceOnUse" gradientTransform="translate(223.027 93.3145) rotate(180) scale(2.32041 12.1821)">
<stop stop-color="#FFFF00"/>
<stop offset="0.16" stop-color="#BFBF00"/>
<stop offset="0.33" stop-color="#868600"/>
<stop offset="0.49" stop-color="#565600"/>
<stop offset="0.64" stop-color="#313100"/>
<stop offset="0.78" stop-color="#161600"/>
<stop offset="0.9" stop-color="#060600"/>
<stop offset="1"/>
</radialGradient>
<radialGradient id="paint13_radial_122_2740" cx="0" cy="0" r="1" gradientUnits="userSpaceOnUse" gradientTransform="translate(233.162 116.524) rotate(90) scale(3.18434 29.455)">
<stop stop-color="#BE1E2D"/>
<stop offset="0.19" stop-color="#861520"/>
<stop offset="0.39" stop-color="#560E14"/>
<stop offset="0.57" stop-color="#31080C"/>
<stop offset="0.74" stop-color="#160305"/>
<stop offset="0.89" stop-color="#060101"/>
<stop offset="1"/>
</radialGradient>
<clipPath id="clip0_122_2740">
<rect width="483" height="226.702" fill="white"/>
</clipPath>
</defs>
</svg>
