<svg width="478" height="225" viewBox="0 0 478 225" fill="none" xmlns="http://www.w3.org/2000/svg">
<g clip-path="url(#clip0_122_2668)">
<path d="M118.859 146.197C118.859 175.659 92.3773 199.545 59.7092 199.545C27.0412 199.545 0.565125 175.669 0.565125 146.197C0.565125 116.725 27.049 92.8407 59.7092 92.8407C92.3694 92.8407 118.859 116.722 118.859 146.197Z" fill="url(#paint0_radial_122_2668)"/>
<path d="M138.18 130.838C134.467 149.432 102.833 163.18 67.5227 161.588C32.2126 159.995 6.63382 143.612 10.3411 125.036C14.0485 106.46 45.6828 92.6885 81.0061 94.2706C116.303 95.8999 141.895 112.235 138.18 130.838Z" fill="white"/>
<path d="M343.547 61.8859C343.547 96.0731 309.625 123.774 267.782 123.774C225.938 123.774 192.019 96.0836 192.019 61.8859C192.019 27.6882 225.941 0 267.782 0C309.622 0 343.547 27.7092 343.547 61.8859Z" fill="url(#paint1_radial_122_2668)"/>
<path d="M324.751 48.7017C321.563 70.1271 292.235 85.203 259.239 82.4297C226.243 79.6564 202.115 60.0099 205.3 38.6134C208.485 17.2169 237.811 2.10159 270.817 4.86176C303.811 7.6639 327.951 27.2658 324.751 48.7017Z" fill="white"/>
<path d="M478 153.656C478 187.835 444.078 215.55 402.229 215.55C360.381 215.55 326.472 187.835 326.472 153.656C326.472 119.477 360.397 91.7623 402.229 91.7623C444.062 91.7623 478 119.472 478 153.656Z" fill="url(#paint2_radial_122_2668)"/>
<path d="M283.791 121.248C283.791 174.51 230.517 217.683 164.813 217.683C99.1098 217.683 45.8271 174.507 45.8271 121.248C45.8271 67.9887 99.0888 24.8126 164.813 24.8126C230.538 24.8126 283.791 67.9808 283.791 121.248Z" fill="url(#paint3_radial_122_2668)"/>
<path d="M268.527 103.726C263.458 139.753 216.349 165.03 163.291 160.244C110.234 155.459 71.3612 122.36 76.4198 86.3758C81.4783 50.3913 128.582 25.0671 181.658 29.8186C234.709 34.6463 273.588 67.679 268.527 103.726Z" fill="white"/>
<path d="M461.373 131.57C457.755 149.862 426.181 162.989 390.85 160.919C355.519 158.849 329.83 142.337 333.448 124.066C337.066 105.794 368.606 92.6387 403.971 94.6799C439.297 96.7894 464.992 113.269 461.373 131.57Z" fill="white"/>
<path d="M409.702 141.92C409.702 187.311 364.311 224.088 308.334 224.088C252.357 224.088 206.945 187.3 206.945 141.92C206.945 96.5401 252.336 59.7554 308.323 59.7554C364.311 59.7554 409.702 96.5375 409.702 141.92Z" fill="url(#paint4_radial_122_2668)"/>
<path d="M366.394 120.083C362.721 147.262 328.251 166.284 289.404 162.629C250.557 158.974 222.076 133.952 225.747 106.807C229.417 79.6617 263.875 60.5924 302.732 64.2341C341.569 67.9336 370.062 92.8958 366.394 120.083Z" fill="white"/>
<path style="mix-blend-mode:multiply" d="M260.062 100.219C259.939 118.556 243.533 133.307 223.401 133.17C203.269 133.034 187.065 118.065 187.194 99.728C187.322 81.3907 203.723 66.648 223.852 66.7844C243.982 66.9209 260.186 81.8919 260.062 100.219Z" fill="url(#paint5_radial_122_2668)"/>
<path d="M261.781 111.086C261.781 115.809 257.701 119.616 252.671 119.616H216.614C211.584 119.616 207.504 115.798 207.504 111.086V76.6182C207.504 71.9112 211.584 68.0884 216.614 68.0884H252.671C257.701 68.0884 261.781 71.9112 261.781 76.6182V111.086Z" fill="url(#paint6_linear_122_2668)"/>
<path d="M258.937 73.1181C258.937 73.5794 258.847 74.0363 258.67 74.4625C258.494 74.8888 258.235 75.2761 257.909 75.6022C257.582 75.9282 257.195 76.1867 256.768 76.3629C256.342 76.539 255.885 76.6293 255.424 76.6286H213.861C213.401 76.6283 212.944 76.5372 212.519 76.3606C212.094 76.184 211.707 75.9254 211.382 75.5994C211.056 75.2734 210.798 74.8865 210.622 74.4607C210.446 74.035 210.356 73.5788 210.356 73.1181C210.356 72.187 210.726 71.2941 211.384 70.6358C212.043 69.9774 212.935 69.6075 213.867 69.6075H255.429C255.89 69.6072 256.347 69.6978 256.773 69.874C257.199 70.0503 257.587 70.3088 257.913 70.6348C258.239 70.9609 258.498 71.348 258.675 71.7741C258.851 72.2002 258.942 72.6569 258.942 73.1181H258.937Z" fill="url(#paint7_linear_122_2668)"/>
<path style="mix-blend-mode:screen" opacity="0.19" d="M234.657 71.1267C223.128 71.2107 213.78 70.602 213.772 69.7571C213.764 68.9123 223.107 68.1698 234.633 68.0858C246.159 68.0018 255.508 68.6105 255.516 69.4554C255.523 70.3002 246.183 71.0427 234.657 71.1267Z" fill="url(#paint8_radial_122_2668)"/>
<path d="M253.068 75.4926C251.543 75.4926 249.919 74.9678 249.919 74.0128V65.0921C249.919 60.9789 248.285 57.0341 245.377 54.1257C242.468 51.2172 238.524 49.5832 234.41 49.5832C230.297 49.5832 226.352 51.2172 223.444 54.1257C220.535 57.0341 218.901 60.9789 218.901 65.0921V74.0128C218.901 74.9731 217.285 75.4926 215.753 75.4926C214.221 75.4926 212.605 74.9678 212.605 74.0128V65.0921C212.601 62.1826 213.187 59.3025 214.326 56.6253C216.55 51.4074 220.705 47.2512 225.923 45.0258C228.602 43.89 231.482 43.3046 234.392 43.3046C237.302 43.3046 240.182 43.89 242.861 45.0258C248.079 47.2512 252.234 51.4074 254.458 56.6253C255.599 59.3021 256.184 62.1825 256.179 65.0921V74.0128C256.206 74.9731 254.589 75.4926 253.068 75.4926Z" fill="#1D1D1B"/>
<path d="M254.191 56.7644C252 51.6215 247.905 47.5258 242.762 45.3354C240.123 44.2152 237.285 43.6378 234.418 43.6378C231.551 43.6378 228.714 44.2152 226.075 45.3354C220.933 47.5279 216.838 51.6229 214.646 56.7644C213.523 59.4015 212.946 62.239 212.951 65.1053V74.0259C212.951 74.6661 214.213 75.1856 215.771 75.1856C217.33 75.1856 218.589 74.6609 218.589 74.0259V65.1053C218.595 60.9091 220.264 56.8864 223.232 53.9195C226.199 50.9526 230.222 49.2838 234.418 49.2789C238.615 49.2831 242.638 50.9518 245.605 53.9188C248.573 56.8858 250.242 60.9089 250.247 65.1053V74.0259C250.247 74.6661 251.509 75.1856 253.068 75.1856C254.626 75.1856 255.886 74.6609 255.886 74.0259V65.1053C255.89 62.239 255.314 59.4015 254.191 56.7644Z" fill="#1D1D1B"/>
<path style="mix-blend-mode:screen" d="M235.712 78.8588C224.183 78.9428 214.832 78.0166 214.822 76.7939C214.811 75.5713 224.152 74.5087 235.678 74.4326C247.204 74.3565 256.555 75.2748 256.562 76.5001C256.57 77.7254 247.235 78.767 235.712 78.8588Z" fill="url(#paint9_radial_122_2668)"/>
<path style="mix-blend-mode:screen" d="M243.738 78.9061C234.465 78.9716 226.946 78.035 226.946 76.8071C226.946 75.5792 234.444 74.5349 243.717 74.4667C252.989 74.3985 260.509 75.3378 260.509 76.5657C260.509 77.7936 253.007 78.8378 243.738 78.9061Z" fill="url(#paint10_radial_122_2668)"/>
<path style="mix-blend-mode:screen" d="M251.446 66.7766C251.412 61.9568 252.107 58.0448 252.999 58.0369C253.891 58.0291 254.644 61.9332 254.679 66.753C254.713 71.5728 254.02 75.4848 253.125 75.4926C252.231 75.5005 251.483 71.5964 251.446 66.7766Z" fill="url(#paint11_radial_122_2668)"/>
<path style="mix-blend-mode:screen" d="M213.992 66.7424C214.061 61.9226 214.84 58.0264 215.732 58.0369C216.624 58.0474 217.306 61.9725 217.225 66.787C217.143 71.6016 216.377 75.5031 215.485 75.4926C214.593 75.4821 213.924 71.5622 213.992 66.7424Z" fill="url(#paint12_radial_122_2668)"/>
<path style="mix-blend-mode:screen" opacity="0.19" d="M234.662 71.8246C223.134 71.9086 213.783 70.9824 213.772 69.7571C213.762 68.5318 223.102 67.4719 234.628 67.3958C246.154 67.3197 255.505 68.2354 255.516 69.4606C255.526 70.6859 246.188 71.7407 234.662 71.8246Z" fill="url(#paint13_radial_122_2668)"/>
<path d="M343.547 137.305H128.299V175.087H343.547V137.305Z" fill="white"/>
<path d="M343.547 137.305H305.765V175.087H343.547V137.305Z" fill="#D1D3D4"/>
<path d="M151.721 164.08L150.865 164.127C150.166 162.511 149.199 160.339 147.964 157.61L144.443 163.558L143.561 163.7C142.875 162.823 142.136 161.989 141.349 161.202L141.444 160.869C143.018 159.713 144.819 158.293 146.846 156.61L139.636 155.422L139.541 155.089C139.874 154.027 140.167 152.941 140.42 151.83L141.208 151.591C143.348 152.908 145.347 154.074 147.203 155.089L146.536 147.855C147.804 147.855 148.941 147.831 149.947 147.784L150.351 148.498C149.718 150.607 149.171 152.844 148.711 155.207L154.872 152.161L155.252 152.281C155.695 153.266 156.171 154.218 156.68 155.136L156.276 155.732C154.561 155.889 152.175 156.166 149.115 156.563L153.943 161.344L154.087 161.748L151.721 164.08Z" fill="#BE1E2D"/>
<path d="M174.148 164.08L173.291 164.127C172.591 162.511 171.624 160.339 170.389 157.61L166.868 163.558L165.989 163.7C165.303 162.823 164.564 161.989 163.777 161.202L163.871 160.869C165.446 159.713 167.245 158.293 169.271 156.61L162.064 155.422L161.966 155.089C162.299 154.027 162.593 152.941 162.848 151.83L163.635 151.591C165.776 152.908 167.775 154.074 169.63 155.089L168.964 147.855C170.234 147.855 171.371 147.831 172.375 147.784L172.779 148.498C172.12 150.705 171.572 152.944 171.136 155.207L177.3 152.161L177.68 152.281C178.123 153.266 178.598 154.218 179.107 155.136L178.703 155.732C176.991 155.889 174.603 156.166 171.54 156.563L176.371 161.344L176.512 161.748L174.148 164.08Z" fill="#BE1E2D"/>
<path d="M196.547 164.08L195.692 164.127C194.992 162.511 194.025 160.339 192.79 157.61L189.269 163.558L188.387 163.7C187.701 162.823 186.963 161.989 186.176 161.202L186.27 160.869C187.844 159.713 189.645 158.293 191.672 156.61L184.462 155.422L184.368 155.089C184.7 154.027 184.993 152.941 185.247 151.83L186.034 151.591C188.175 152.908 190.173 154.074 192.029 155.089L191.363 147.855C192.631 147.855 193.768 147.831 194.774 147.784L195.178 148.498C194.546 150.607 194 152.844 193.538 155.207L199.698 152.161L200.079 152.281C200.523 153.266 200.999 154.218 201.506 155.136L201.102 155.732C199.388 155.889 197.001 156.166 193.942 156.563L198.77 161.344L198.914 161.748L196.547 164.08Z" fill="#BE1E2D"/>
<path d="M218.962 164.08L218.104 164.127C217.404 162.511 216.437 160.339 215.202 157.61L211.681 163.558L210.802 163.7C210.116 162.823 209.377 161.989 208.59 161.202L208.685 160.869C210.259 159.713 212.059 158.293 214.084 156.61L206.877 155.422L206.78 155.089C207.112 154.027 207.406 152.941 207.661 151.83L208.448 151.591C210.589 152.908 212.588 154.074 214.444 155.089L213.767 147.855C215.037 147.855 216.174 147.831 217.178 147.784L217.582 148.498C216.922 150.705 216.374 152.944 215.939 155.207L222.102 152.161L222.483 152.281C222.925 153.266 223.401 154.218 223.91 155.136L223.506 155.732C221.794 155.889 219.406 156.166 216.343 156.563L221.174 161.344L221.315 161.748L218.962 164.08Z" fill="#BE1E2D"/>
<path d="M241.374 164.08L240.518 164.127C239.819 162.511 238.851 160.339 237.617 157.61L234.095 163.558L233.214 163.7C232.528 162.823 231.789 161.989 231.002 161.202L231.097 160.869C232.671 159.713 234.471 158.293 236.496 156.61L229.289 155.422L229.194 155.089C229.527 154.027 229.82 152.941 230.073 151.83L230.86 151.591C233.001 152.908 235 154.074 236.856 155.089L236.189 147.855C237.456 147.855 238.593 147.831 239.6 147.784L240.004 148.498C239.371 150.607 238.824 152.844 238.364 155.207L244.525 152.161L244.905 152.281C245.348 153.266 245.824 154.218 246.333 155.136L245.928 155.732C244.214 155.889 241.828 156.166 238.768 156.563L243.596 161.344L243.74 161.748L241.374 164.08Z" fill="#BE1E2D"/>
<path d="M263.788 164.08L262.93 164.127C262.231 162.511 261.263 160.339 260.028 157.61L256.507 163.558L255.628 163.7C254.942 162.823 254.204 161.989 253.417 161.202L253.511 160.869C255.085 159.713 256.885 158.293 258.911 156.61L251.703 155.422L251.606 155.089C251.939 154.027 252.232 152.941 252.488 151.83L253.275 151.591C255.416 152.908 257.414 154.074 259.27 155.089L258.604 147.855C259.874 147.855 261.011 147.831 262.015 147.784L262.419 148.498C261.759 150.705 261.211 152.944 260.776 155.207L266.939 152.161L267.32 152.281C267.764 153.266 268.24 154.218 268.747 155.136L268.343 155.732C266.631 155.889 264.243 156.166 261.18 156.563L266.01 161.344L266.152 161.748L263.788 164.08Z" fill="#BE1E2D"/>
<path d="M286.2 164.08L285.345 164.127C284.645 162.511 283.678 160.339 282.443 157.61L278.922 163.558L278.04 163.7C277.354 162.823 276.616 161.989 275.829 161.202L275.923 160.869C277.497 159.713 279.297 158.293 281.323 156.61L274.115 155.422L274.021 155.089C274.353 154.027 274.646 152.941 274.9 151.83L275.687 151.591C277.828 152.908 279.825 154.074 281.679 155.089L281.016 147.855C282.284 147.855 283.421 147.831 284.426 147.784L284.831 148.498C284.199 150.607 283.652 152.844 283.191 155.207L289.351 152.161L289.732 152.281C290.176 153.266 290.652 154.218 291.159 155.136L290.755 155.732C289.041 155.889 286.654 156.166 283.595 156.563L288.422 161.344L288.567 161.748L286.2 164.08Z" fill="#BE1E2D"/>
</g>
<defs>
<radialGradient id="paint0_radial_122_2668" cx="0" cy="0" r="1" gradientUnits="userSpaceOnUse" gradientTransform="translate(55.9153 114.177) scale(109.396 136.746)">
<stop stop-color="white"/>
<stop offset="0.18" stop-color="#FCFCFC"/>
<stop offset="0.33" stop-color="#F1F2F3"/>
<stop offset="0.48" stop-color="#DFE1E5"/>
<stop offset="0.53" stop-color="#D7DADE"/>
<stop offset="0.59" stop-color="#DDDFE3"/>
<stop offset="0.68" stop-color="#EEEEF0"/>
<stop offset="0.72" stop-color="#F7F6F8"/>
</radialGradient>
<radialGradient id="paint1_radial_122_2668" cx="0" cy="0" r="1" gradientUnits="userSpaceOnUse" gradientTransform="translate(262.917 24.7549) scale(150.413 150.413)">
<stop stop-color="white"/>
<stop offset="0.18" stop-color="#FCFCFC"/>
<stop offset="0.33" stop-color="#F1F2F3"/>
<stop offset="0.48" stop-color="#DFE1E5"/>
<stop offset="0.53" stop-color="#D7DADE"/>
<stop offset="0.59" stop-color="#DDDFE3"/>
<stop offset="0.68" stop-color="#EEEEF0"/>
<stop offset="0.72" stop-color="#F7F6F8"/>
</radialGradient>
<radialGradient id="paint2_radial_122_2668" cx="0" cy="0" r="1" gradientUnits="userSpaceOnUse" gradientTransform="translate(397.37 116.52) scale(150.421 150.421)">
<stop stop-color="white"/>
<stop offset="0.18" stop-color="#FCFCFC"/>
<stop offset="0.33" stop-color="#F1F2F3"/>
<stop offset="0.48" stop-color="#DFE1E5"/>
<stop offset="0.53" stop-color="#D7DADE"/>
<stop offset="0.59" stop-color="#DDDFE3"/>
<stop offset="0.68" stop-color="#EEEEF0"/>
<stop offset="0.72" stop-color="#F7F6F8"/>
</radialGradient>
<radialGradient id="paint3_radial_122_2668" cx="0" cy="0" r="1" gradientUnits="userSpaceOnUse" gradientTransform="translate(157.17 63.3867) scale(235.11 235.11)">
<stop stop-color="white"/>
<stop offset="0.18" stop-color="#FCFCFC"/>
<stop offset="0.33" stop-color="#F1F2F3"/>
<stop offset="0.48" stop-color="#DFE1E5"/>
<stop offset="0.53" stop-color="#D7DADE"/>
<stop offset="0.59" stop-color="#DDDFE3"/>
<stop offset="0.68" stop-color="#EEEEF0"/>
<stop offset="0.72" stop-color="#F7F6F8"/>
</radialGradient>
<radialGradient id="paint4_radial_122_2668" cx="0" cy="0" r="1" gradientUnits="userSpaceOnUse" gradientTransform="translate(301.822 92.6203) scale(200.319 200.319)">
<stop stop-color="white"/>
<stop offset="0.18" stop-color="#FCFCFC"/>
<stop offset="0.33" stop-color="#F1F2F3"/>
<stop offset="0.48" stop-color="#DFE1E5"/>
<stop offset="0.53" stop-color="#D7DADE"/>
<stop offset="0.59" stop-color="#DDDFE3"/>
<stop offset="0.68" stop-color="#EEEEF0"/>
<stop offset="0.72" stop-color="#F7F6F8"/>
</radialGradient>
<radialGradient id="paint5_radial_122_2668" cx="0" cy="0" r="1" gradientUnits="userSpaceOnUse" gradientTransform="translate(221.803 102.571) rotate(0.578726) scale(36.6109 33.283)">
<stop stop-color="#BE1E2D"/>
<stop offset="0.2" stop-color="#D05D68"/>
<stop offset="0.41" stop-color="#E1969D"/>
<stop offset="0.6" stop-color="#EEC4C8"/>
<stop offset="0.76" stop-color="#F7E4E6"/>
<stop offset="0.9" stop-color="#FDF8F8"/>
<stop offset="1" stop-color="white"/>
</radialGradient>
<linearGradient id="paint6_linear_122_2668" x1="169.255" y1="93.8535" x2="255.791" y2="93.8535" gradientUnits="userSpaceOnUse">
<stop offset="0.38" stop-color="#BE1E2D"/>
<stop offset="0.42" stop-color="#B61C29"/>
<stop offset="0.49" stop-color="#A01620"/>
<stop offset="0.58" stop-color="#7C0D10"/>
<stop offset="0.59" stop-color="#740B0C"/>
<stop offset="0.68" stop-color="#7A0D0F"/>
<stop offset="0.79" stop-color="#8B1116"/>
<stop offset="0.91" stop-color="#A61822"/>
<stop offset="1" stop-color="#BE1E2D"/>
</linearGradient>
<linearGradient id="paint7_linear_122_2668" x1="233.043" y1="49.578" x2="237.155" y2="110.081" gradientUnits="userSpaceOnUse">
<stop stop-color="#BE1E2D"/>
<stop offset="0.12" stop-color="#B61C29"/>
<stop offset="0.31" stop-color="#A01620"/>
<stop offset="0.55" stop-color="#7C0D10"/>
<stop offset="0.59" stop-color="#740B0C"/>
<stop offset="0.68" stop-color="#7A0D0F"/>
<stop offset="0.79" stop-color="#8B1116"/>
<stop offset="0.91" stop-color="#A61822"/>
<stop offset="1" stop-color="#BE1E2D"/>
</linearGradient>
<radialGradient id="paint8_radial_122_2668" cx="0" cy="0" r="1" gradientUnits="userSpaceOnUse" gradientTransform="translate(230.38 127.51) rotate(90) scale(1.69411 20.8941)">
<stop stop-color="#BE1E2D"/>
<stop offset="0.19" stop-color="#861520"/>
<stop offset="0.39" stop-color="#560E14"/>
<stop offset="0.57" stop-color="#31080C"/>
<stop offset="0.74" stop-color="#160305"/>
<stop offset="0.89" stop-color="#060101"/>
<stop offset="1"/>
</radialGradient>
<radialGradient id="paint9_radial_122_2668" cx="0" cy="0" r="1" gradientUnits="userSpaceOnUse" gradientTransform="translate(231.323 82.3666) rotate(90) scale(2.25725 20.8795)">
<stop stop-color="#BE1E2D"/>
<stop offset="0.19" stop-color="#861520"/>
<stop offset="0.39" stop-color="#560E14"/>
<stop offset="0.57" stop-color="#31080C"/>
<stop offset="0.74" stop-color="#160305"/>
<stop offset="0.89" stop-color="#060101"/>
<stop offset="1"/>
</radialGradient>
<radialGradient id="paint10_radial_122_2668" cx="0" cy="0" r="1" gradientUnits="userSpaceOnUse" gradientTransform="translate(235.115 82.2536) rotate(90) scale(2.25704 16.9278)">
<stop stop-color="#BE1E2D"/>
<stop offset="0.19" stop-color="#861520"/>
<stop offset="0.39" stop-color="#560E14"/>
<stop offset="0.57" stop-color="#31080C"/>
<stop offset="0.74" stop-color="#160305"/>
<stop offset="0.89" stop-color="#060101"/>
<stop offset="1"/>
</radialGradient>
<radialGradient id="paint11_radial_122_2668" cx="0" cy="0" r="1" gradientUnits="userSpaceOnUse" gradientTransform="translate(242.079 56.4741) rotate(180) scale(1.64488 8.63557)">
<stop stop-color="#FFFF00"/>
<stop offset="0.16" stop-color="#BFBF00"/>
<stop offset="0.33" stop-color="#868600"/>
<stop offset="0.49" stop-color="#565600"/>
<stop offset="0.64" stop-color="#313100"/>
<stop offset="0.78" stop-color="#161600"/>
<stop offset="0.9" stop-color="#060600"/>
<stop offset="1"/>
</radialGradient>
<radialGradient id="paint12_radial_122_2668" cx="0" cy="0" r="1" gradientUnits="userSpaceOnUse" gradientTransform="translate(220.961 62.4625) rotate(180) scale(1.64487 8.63556)">
<stop stop-color="#FFFF00"/>
<stop offset="0.16" stop-color="#BFBF00"/>
<stop offset="0.33" stop-color="#868600"/>
<stop offset="0.49" stop-color="#565600"/>
<stop offset="0.64" stop-color="#313100"/>
<stop offset="0.78" stop-color="#161600"/>
<stop offset="0.9" stop-color="#060600"/>
<stop offset="1"/>
</radialGradient>
<radialGradient id="paint13_radial_122_2668" cx="0" cy="0" r="1" gradientUnits="userSpaceOnUse" gradientTransform="translate(230.327 75.1989) rotate(90) scale(2.25725 20.8795)">
<stop stop-color="#BE1E2D"/>
<stop offset="0.19" stop-color="#861520"/>
<stop offset="0.39" stop-color="#560E14"/>
<stop offset="0.57" stop-color="#31080C"/>
<stop offset="0.74" stop-color="#160305"/>
<stop offset="0.89" stop-color="#060101"/>
<stop offset="1"/>
</radialGradient>
<clipPath id="clip0_122_2668">
<rect width="477.435" height="224.09" fill="white" transform="translate(0.565125)"/>
</clipPath>
</defs>
</svg>
