<svg width="478" height="225" viewBox="0 0 478 225" fill="none" xmlns="http://www.w3.org/2000/svg">
<g clip-path="url(#clip0_120_2589)">
<path d="M118.293 146.191C118.293 175.653 91.8121 199.542 59.1441 199.542C26.476 199.542 0 175.666 0 146.191C0 116.716 26.4839 92.8379 59.1441 92.8379C91.8043 92.8379 118.293 116.724 118.293 146.191Z" fill="url(#paint0_radial_120_2589)"/>
<path d="M137.615 130.837C133.902 149.434 102.268 163.183 66.9576 161.59C31.6474 159.998 6.06869 143.615 9.77602 125.039C13.4833 106.463 45.1176 92.6911 80.4409 94.2732C115.738 95.9025 141.33 112.238 137.615 130.837Z" fill="white"/>
<path d="M342.982 61.8885C342.982 96.0757 309.06 123.777 267.216 123.777C225.373 123.777 191.453 96.0757 191.453 61.8885C191.453 27.7013 225.376 0 267.216 0C309.057 0 342.982 27.7092 342.982 61.8885Z" fill="url(#paint1_radial_120_2589)"/>
<path d="M324.185 48.7016C320.997 70.1295 291.669 85.2055 258.673 82.4322C225.677 79.6589 201.55 60.0125 204.735 38.6159C207.92 17.2194 237.245 2.10151 270.252 4.8643C303.245 7.67169 327.386 27.2657 324.185 48.7016Z" fill="white"/>
<path d="M477.435 153.659C477.435 187.838 443.512 215.552 401.664 215.552C359.815 215.552 325.906 187.838 325.906 153.659C325.906 119.479 359.831 91.7622 401.664 91.7622C443.497 91.7622 477.435 119.474 477.435 153.659Z" fill="url(#paint2_radial_120_2589)"/>
<path d="M283.226 121.25C283.226 174.512 229.951 217.685 164.248 217.685C98.5446 217.685 45.262 174.507 45.262 121.25C45.262 67.9938 98.5236 24.8125 164.248 24.8125C229.972 24.8125 283.226 67.9833 283.226 121.25Z" fill="url(#paint3_radial_120_2589)"/>
<path d="M267.961 103.729C262.892 139.753 215.783 165.032 162.726 160.244C109.669 155.456 70.7961 122.363 75.8546 86.3652C80.9132 50.3676 128.017 25.0565 181.092 29.8081C234.144 34.6488 273.023 67.679 267.961 103.729Z" fill="white"/>
<path d="M460.808 131.564C457.19 149.857 425.616 162.981 390.285 160.913C354.954 158.846 329.265 142.332 332.883 124.058C336.501 105.783 368.041 92.6334 403.406 94.672C438.732 96.792 464.426 113.272 460.808 131.564Z" fill="white"/>
<path d="M409.136 141.92C409.136 187.311 363.746 224.09 307.769 224.09C251.791 224.09 206.38 187.3 206.38 141.92C206.38 96.5401 251.77 59.7581 307.758 59.7581C363.746 59.7581 409.136 96.5401 409.136 141.92Z" fill="url(#paint4_radial_120_2589)"/>
<path d="M365.829 120.085C362.156 147.265 327.685 166.287 288.838 162.632C249.991 158.977 221.511 133.954 225.182 106.809C228.852 79.6642 263.315 60.5949 302.167 64.234C341.003 67.9361 369.497 92.8983 365.829 120.085Z" fill="white"/>
<path style="mix-blend-mode:multiply" d="M272.7 146.52C272.527 172.088 249.64 192.658 221.577 192.469C193.513 192.28 170.91 171.406 171.08 145.835C171.251 120.264 194.138 99.7043 222.198 99.8959C250.259 100.087 272.87 120.97 272.7 146.52Z" fill="url(#paint5_radial_120_2589)"/>
<path d="M275.098 161.679C275.098 168.239 269.407 173.575 262.394 173.575H212.113C205.097 173.575 199.409 168.252 199.409 161.679V113.618C199.409 107.059 205.097 101.722 212.113 101.722H262.394C269.407 101.722 275.098 107.051 275.098 113.618V161.679Z" fill="url(#paint6_linear_120_2589)"/>
<path d="M271.128 108.738C271.129 109.381 271.003 110.018 270.757 110.612C270.511 111.206 270.151 111.746 269.696 112.201C269.241 112.656 268.701 113.017 268.107 113.262C267.512 113.508 266.875 113.634 266.232 113.634H208.277C207.633 113.635 206.996 113.509 206.402 113.263C205.807 113.017 205.267 112.657 204.812 112.202C204.357 111.747 203.996 111.207 203.75 110.613C203.504 110.018 203.378 109.381 203.378 108.738C203.378 108.095 203.505 107.458 203.751 106.864C203.997 106.269 204.358 105.73 204.813 105.275C205.268 104.82 205.808 104.46 206.402 104.214C206.997 103.968 207.634 103.841 208.277 103.842H266.232C266.875 103.841 267.512 103.968 268.106 104.214C268.7 104.46 269.24 104.82 269.695 105.275C270.15 105.73 270.51 106.27 270.756 106.864C271.002 107.458 271.129 108.095 271.128 108.738Z" fill="url(#paint7_linear_120_2589)"/>
<path style="mix-blend-mode:screen" opacity="0.19" d="M237.274 105.959C221.196 106.075 208.151 105.219 208.151 104.049C208.151 102.879 221.165 101.837 237.24 101.719C253.316 101.601 266.364 102.457 266.364 103.629C266.364 104.802 253.345 105.852 237.274 105.959Z" fill="url(#paint8_radial_120_2589)"/>
<path d="M262.945 112.046C260.822 112.046 258.566 111.322 258.566 109.981V97.5633C258.503 91.869 256.197 86.4292 252.148 82.4247C248.099 78.4202 242.634 76.1742 236.94 76.1742C231.245 76.1742 225.78 78.4202 221.731 82.4247C217.682 86.4292 215.376 91.869 215.314 97.5633V109.981C215.314 111.322 213.06 112.046 210.937 112.046C208.815 112.046 206.558 111.322 206.558 109.981V97.5633C206.553 93.506 207.37 89.4897 208.959 85.7566C212.059 78.4795 217.855 72.6841 225.132 69.5839C228.866 68.0004 232.882 67.1843 236.938 67.1843C240.995 67.1843 245.01 68.0004 248.745 69.5839C256.021 72.6862 261.816 78.4809 264.918 85.7566C266.507 89.4897 267.324 93.506 267.319 97.5633V109.981C267.324 111.322 265.067 112.046 262.945 112.046Z" fill="#1D1D1B"/>
<path d="M264.511 85.9298C261.455 78.7596 255.745 73.0492 248.575 69.9932C244.894 68.4315 240.938 67.6267 236.94 67.6267C232.942 67.6267 228.985 68.4315 225.305 69.9932C218.135 73.0492 212.424 78.7596 209.368 85.9298C207.804 89.6084 207 93.5658 207.007 97.5634V109.981C207.007 110.876 208.767 111.6 210.943 111.6C213.118 111.6 214.878 110.876 214.878 109.981V97.5634C214.885 91.7115 217.213 86.1013 221.351 81.9637C225.489 77.826 231.1 75.4988 236.952 75.4926C242.803 75.4988 248.413 77.8261 252.551 81.9639C256.689 86.1016 259.016 91.7117 259.022 97.5634V109.981C259.022 110.876 260.783 111.6 262.958 111.6C265.133 111.6 266.894 110.876 266.894 109.981V97.5634C266.893 93.5644 266.083 89.6069 264.511 85.9298Z" fill="#1D1D1B"/>
<path style="mix-blend-mode:screen" d="M238.744 116.743C222.665 116.858 209.62 115.567 209.62 113.857C209.62 112.146 222.629 110.671 238.704 110.553C254.78 110.435 267.828 111.729 267.828 113.439C267.828 115.15 254.814 116.625 238.744 116.743Z" fill="url(#paint9_radial_120_2589)"/>
<path style="mix-blend-mode:screen" d="M249.934 116.806C237.001 116.9 226.512 115.591 226.499 113.883C226.486 112.175 236.957 110.716 249.887 110.622C262.816 110.527 273.306 111.837 273.316 113.545C273.327 115.253 262.861 116.711 249.934 116.806Z" fill="url(#paint10_radial_120_2589)"/>
<path style="mix-blend-mode:screen" d="M260.691 99.8933C260.644 93.1713 261.612 87.7166 262.858 87.7061C264.104 87.6956 265.149 93.1372 265.199 99.8618C265.248 106.586 264.278 112.039 263.034 112.046C261.79 112.054 260.736 106.615 260.691 99.8933Z" fill="url(#paint11_radial_120_2589)"/>
<path style="mix-blend-mode:screen" d="M208.458 99.8461C208.552 93.1241 209.636 87.6903 210.882 87.7061C212.128 87.7218 213.057 93.187 212.963 99.909C212.868 106.631 211.785 112.062 210.538 112.046C209.292 112.031 208.363 106.565 208.458 99.8461Z" fill="url(#paint12_radial_120_2589)"/>
<path style="mix-blend-mode:screen" opacity="0.19" d="M237.28 106.933C221.204 107.048 208.156 105.757 208.156 104.047C208.156 102.336 221.165 100.861 237.24 100.743C253.316 100.625 266.364 101.919 266.364 103.629C266.364 105.34 253.345 106.815 237.28 106.933Z" fill="url(#paint13_radial_120_2589)"/>
<path d="M251.075 128.628C250.787 128.343 250.445 128.116 250.07 127.963C249.694 127.809 249.292 127.73 248.886 127.732C248.48 127.734 248.078 127.816 247.704 127.972C247.33 128.129 246.99 128.358 246.704 128.647L231.922 143.565L226.771 139.892C226.441 139.657 226.067 139.489 225.671 139.399C225.275 139.308 224.865 139.296 224.465 139.364C224.065 139.432 223.682 139.578 223.338 139.793C222.994 140.009 222.696 140.29 222.461 140.621C222.226 140.952 222.058 141.326 221.967 141.722C221.877 142.118 221.865 142.528 221.933 142.928C222 143.328 222.146 143.711 222.362 144.055C222.578 144.399 222.859 144.697 223.19 144.932L232.62 151.631L251.096 132.986C251.669 132.405 251.988 131.62 251.984 130.803C251.98 129.986 251.654 129.205 251.075 128.628Z" fill="white"/>
</g>
<defs>
<radialGradient id="paint0_radial_120_2589" cx="0" cy="0" r="1" gradientUnits="userSpaceOnUse" gradientTransform="translate(55.3502 114.178) scale(109.396 136.745)">
<stop stop-color="white"/>
<stop offset="0.18" stop-color="#FCFCFC"/>
<stop offset="0.33" stop-color="#F1F2F3"/>
<stop offset="0.48" stop-color="#DFE1E5"/>
<stop offset="0.53" stop-color="#D7DADE"/>
<stop offset="0.59" stop-color="#DDDFE3"/>
<stop offset="0.68" stop-color="#EEEEF0"/>
<stop offset="0.72" stop-color="#F7F6F8"/>
</radialGradient>
<radialGradient id="paint1_radial_120_2589" cx="0" cy="0" r="1" gradientUnits="userSpaceOnUse" gradientTransform="translate(262.352 24.7549) scale(150.413 150.413)">
<stop stop-color="white"/>
<stop offset="0.18" stop-color="#FCFCFC"/>
<stop offset="0.33" stop-color="#F1F2F3"/>
<stop offset="0.48" stop-color="#DFE1E5"/>
<stop offset="0.53" stop-color="#D7DADE"/>
<stop offset="0.59" stop-color="#DDDFE3"/>
<stop offset="0.68" stop-color="#EEEEF0"/>
<stop offset="0.72" stop-color="#F7F6F8"/>
</radialGradient>
<radialGradient id="paint2_radial_120_2589" cx="0" cy="0" r="1" gradientUnits="userSpaceOnUse" gradientTransform="translate(396.805 116.522) scale(150.421 150.421)">
<stop stop-color="white"/>
<stop offset="0.18" stop-color="#FCFCFC"/>
<stop offset="0.33" stop-color="#F1F2F3"/>
<stop offset="0.48" stop-color="#DFE1E5"/>
<stop offset="0.53" stop-color="#D7DADE"/>
<stop offset="0.59" stop-color="#DDDFE3"/>
<stop offset="0.68" stop-color="#EEEEF0"/>
<stop offset="0.72" stop-color="#F7F6F8"/>
</radialGradient>
<radialGradient id="paint3_radial_120_2589" cx="0" cy="0" r="1" gradientUnits="userSpaceOnUse" gradientTransform="translate(156.605 63.3866) scale(235.11 235.11)">
<stop stop-color="white"/>
<stop offset="0.18" stop-color="#FCFCFC"/>
<stop offset="0.33" stop-color="#F1F2F3"/>
<stop offset="0.48" stop-color="#DFE1E5"/>
<stop offset="0.53" stop-color="#D7DADE"/>
<stop offset="0.59" stop-color="#DDDFE3"/>
<stop offset="0.68" stop-color="#EEEEF0"/>
<stop offset="0.72" stop-color="#F7F6F8"/>
</radialGradient>
<radialGradient id="paint4_radial_120_2589" cx="0" cy="0" r="1" gradientUnits="userSpaceOnUse" gradientTransform="translate(301.257 92.6229) scale(200.319 200.319)">
<stop stop-color="white"/>
<stop offset="0.18" stop-color="#FCFCFC"/>
<stop offset="0.33" stop-color="#F1F2F3"/>
<stop offset="0.48" stop-color="#DFE1E5"/>
<stop offset="0.53" stop-color="#D7DADE"/>
<stop offset="0.59" stop-color="#DDDFE3"/>
<stop offset="0.68" stop-color="#EEEEF0"/>
<stop offset="0.72" stop-color="#F7F6F8"/>
</radialGradient>
<radialGradient id="paint5_radial_120_2589" cx="0" cy="0" r="1" gradientUnits="userSpaceOnUse" gradientTransform="translate(221.091 148.166) rotate(0.578726) scale(51.0511 46.4106)">
<stop stop-color="#BE1E2D"/>
<stop offset="0.2" stop-color="#D05D68"/>
<stop offset="0.41" stop-color="#E1969D"/>
<stop offset="0.6" stop-color="#EEC4C8"/>
<stop offset="0.76" stop-color="#F7E4E6"/>
<stop offset="0.9" stop-color="#FDF8F8"/>
<stop offset="1" stop-color="white"/>
</radialGradient>
<linearGradient id="paint6_linear_120_2589" x1="146.073" y1="137.649" x2="266.744" y2="137.649" gradientUnits="userSpaceOnUse">
<stop offset="0.38" stop-color="#BE1E2D"/>
<stop offset="0.42" stop-color="#B61C29"/>
<stop offset="0.49" stop-color="#A01620"/>
<stop offset="0.58" stop-color="#7C0D10"/>
<stop offset="0.59" stop-color="#740B0C"/>
<stop offset="0.68" stop-color="#7A0D0F"/>
<stop offset="0.79" stop-color="#8B1116"/>
<stop offset="0.91" stop-color="#A61822"/>
<stop offset="1" stop-color="#BE1E2D"/>
</linearGradient>
<linearGradient id="paint7_linear_120_2589" x1="235.026" y1="75.9122" x2="240.756" y2="160.278" gradientUnits="userSpaceOnUse">
<stop stop-color="#BE1E2D"/>
<stop offset="0.12" stop-color="#B61C29"/>
<stop offset="0.31" stop-color="#A01620"/>
<stop offset="0.55" stop-color="#7C0D10"/>
<stop offset="0.59" stop-color="#740B0C"/>
<stop offset="0.68" stop-color="#7A0D0F"/>
<stop offset="0.79" stop-color="#8B1116"/>
<stop offset="0.91" stop-color="#A61822"/>
<stop offset="1" stop-color="#BE1E2D"/>
</linearGradient>
<radialGradient id="paint8_radial_120_2589" cx="0" cy="0" r="1" gradientUnits="userSpaceOnUse" gradientTransform="translate(234.771 134.214) rotate(90) scale(2.36238 29.136)">
<stop stop-color="#BE1E2D"/>
<stop offset="0.19" stop-color="#861520"/>
<stop offset="0.39" stop-color="#560E14"/>
<stop offset="0.57" stop-color="#31080C"/>
<stop offset="0.74" stop-color="#160305"/>
<stop offset="0.89" stop-color="#060101"/>
<stop offset="1"/>
</radialGradient>
<radialGradient id="paint9_radial_120_2589" cx="0" cy="0" r="1" gradientUnits="userSpaceOnUse" gradientTransform="translate(236.155 115.203) rotate(90) scale(3.14763 29.1156)">
<stop stop-color="#BE1E2D"/>
<stop offset="0.19" stop-color="#861520"/>
<stop offset="0.39" stop-color="#560E14"/>
<stop offset="0.57" stop-color="#31080C"/>
<stop offset="0.74" stop-color="#160305"/>
<stop offset="0.89" stop-color="#060101"/>
<stop offset="1"/>
</radialGradient>
<radialGradient id="paint10_radial_120_2589" cx="0" cy="0" r="1" gradientUnits="userSpaceOnUse" gradientTransform="translate(243.182 115.133) rotate(90) scale(3.14742 23.6057)">
<stop stop-color="#BE1E2D"/>
<stop offset="0.19" stop-color="#861520"/>
<stop offset="0.39" stop-color="#560E14"/>
<stop offset="0.57" stop-color="#31080C"/>
<stop offset="0.74" stop-color="#160305"/>
<stop offset="0.89" stop-color="#060101"/>
<stop offset="1"/>
</radialGradient>
<radialGradient id="paint11_radial_120_2589" cx="0" cy="0" r="1" gradientUnits="userSpaceOnUse" gradientTransform="translate(253.985 92.1701) rotate(180) scale(2.29378 12.0423)">
<stop stop-color="#FFFF00"/>
<stop offset="0.16" stop-color="#BFBF00"/>
<stop offset="0.33" stop-color="#868600"/>
<stop offset="0.49" stop-color="#565600"/>
<stop offset="0.64" stop-color="#313100"/>
<stop offset="0.78" stop-color="#161600"/>
<stop offset="0.9" stop-color="#060600"/>
<stop offset="1"/>
</radialGradient>
<radialGradient id="paint12_radial_120_2589" cx="0" cy="0" r="1" gradientUnits="userSpaceOnUse" gradientTransform="translate(212.644 98.1613) rotate(180) scale(2.29367 12.0417)">
<stop stop-color="#FFFF00"/>
<stop offset="0.16" stop-color="#BFBF00"/>
<stop offset="0.33" stop-color="#868600"/>
<stop offset="0.49" stop-color="#565600"/>
<stop offset="0.64" stop-color="#313100"/>
<stop offset="0.78" stop-color="#161600"/>
<stop offset="0.9" stop-color="#060600"/>
<stop offset="1"/>
</radialGradient>
<radialGradient id="paint13_radial_120_2589" cx="0" cy="0" r="1" gradientUnits="userSpaceOnUse" gradientTransform="translate(234.766 105.207) rotate(90) scale(3.14763 29.1156)">
<stop stop-color="#BE1E2D"/>
<stop offset="0.19" stop-color="#861520"/>
<stop offset="0.39" stop-color="#560E14"/>
<stop offset="0.57" stop-color="#31080C"/>
<stop offset="0.74" stop-color="#160305"/>
<stop offset="0.89" stop-color="#060101"/>
<stop offset="1"/>
</radialGradient>
<clipPath id="clip0_120_2589">
<rect width="477.435" height="224.09" fill="white"/>
</clipPath>
</defs>
</svg>
