<svg width="36" height="36" viewBox="0 0 36 36" fill="none" xmlns="http://www.w3.org/2000/svg">
<path d="M31.95 18.345H26.73C25.26 18.345 23.955 19.155 23.295 20.475L22.035 22.965C21.735 23.565 21.135 23.94 20.475 23.94H15.555C15.09 23.94 14.43 23.835 13.995 22.965L12.735 20.49C12.075 19.185 10.755 18.36 9.3 18.36H4.05C3.465 18.36 3 18.825 3 19.41V24.3C3 29.745 6.27 33 11.73 33H24.3C29.445 33 32.61 30.18 33 25.17V19.395C33 18.825 32.535 18.345 31.95 18.345Z" fill="#ED0000"/>
<path d="M19.125 3C19.125 2.385 18.615 1.875 18 1.875C17.385 1.875 16.875 2.385 16.875 3V6H19.125V3Z" fill="#ED0000"/>
<path d="M33 14.715V16.275C32.67 16.155 32.31 16.095 31.95 16.095H26.73C24.405 16.095 22.32 17.385 21.285 19.455L20.16 21.675H15.87L14.745 19.47C13.71 17.385 11.625 16.095 9.3 16.095H4.05C3.69 16.095 3.33 16.155 3 16.275V14.715C3 9.255 6.255 6 11.715 6H16.875V10.785L15.795 9.705C15.36 9.27 14.64 9.27 14.205 9.705C13.77 10.14 13.77 10.86 14.205 11.295L17.205 14.295C17.22 14.31 17.235 14.31 17.235 14.325C17.34 14.415 17.445 14.49 17.565 14.535C17.715 14.595 17.85 14.625 18 14.625C18.15 14.625 18.285 14.595 18.42 14.535C18.555 14.49 18.69 14.4 18.795 14.295L21.795 11.295C22.23 10.86 22.23 10.14 21.795 9.705C21.36 9.27 20.64 9.27 20.205 9.705L19.125 10.785V6H24.285C29.745 6 33 9.255 33 14.715Z" fill="#ED0000"/>
</svg>
